<svg width="30" height="36" viewBox="0 0 30 36" fill="none" xmlns="http://www.w3.org/2000/svg">
<path d="M25.0568 19.1447C25.075 17.7648 25.4504 16.4119 26.1481 15.2117C26.8458 14.0116 27.8431 13.0032 29.0472 12.2805C28.2823 11.2139 27.2731 10.3362 26.0999 9.71696C24.9267 9.09775 23.6218 8.75414 22.2888 8.71343C19.4453 8.42202 16.6887 10.3746 15.2396 10.3746C13.7626 10.3746 11.5316 8.74236 9.12924 8.79061C7.57531 8.83962 6.06089 9.28079 4.73352 10.0711C3.40616 10.8614 2.31112 11.974 1.5551 13.3003C-1.71972 18.8359 0.723007 26.9714 3.86007 31.446C5.42962 33.637 7.26396 36.0845 9.66419 35.9977C12.0129 35.9026 12.8902 34.5355 15.7253 34.5355C18.5341 34.5355 19.3571 35.9977 21.8061 35.9425C24.3264 35.9026 25.9143 33.7417 27.4288 31.5299C28.5565 29.9687 29.4243 28.2432 30 26.4174C28.5358 25.8128 27.2862 24.8007 26.4072 23.5074C25.5281 22.2141 25.0585 20.6968 25.0568 19.1447Z" fill="black"/>
<path d="M20.4311 5.77069C21.8053 4.16014 22.4823 2.09003 22.3183 0C20.2189 0.215279 18.2796 1.19489 16.8868 2.74366C16.2059 3.50027 15.6843 4.38049 15.352 5.33401C15.0197 6.28752 14.8832 7.29563 14.9502 8.3007C16.0003 8.31126 17.0391 8.08904 17.9885 7.6508C18.9379 7.21257 19.773 6.56972 20.4311 5.77069Z" fill="black"/>
</svg>
