<svg width="42" height="42" viewBox="0 0 42 42" fill="none" xmlns="http://www.w3.org/2000/svg">
<path opacity="0.4" d="M29.4907 0.166672H36.5448C39.4662 0.166672 41.8334 2.55386 41.8334 5.49993V12.6136C41.8334 15.5597 39.4662 17.9469 36.5448 17.9469H29.4907C26.5693 17.9469 24.2021 15.5597 24.2021 12.6136V5.49993C24.2021 2.55386 26.5693 0.166672 29.4907 0.166672Z" fill="#039B00"/>
<path d="M12.5098 24.0534C15.4311 24.0534 17.7978 26.4404 17.7979 29.3864V36.4997C17.7979 39.4437 15.4311 41.8336 12.5098 41.8337H5.45605C2.53466 41.8337 0.166992 39.4437 0.166992 36.4997V29.3864C0.167 26.4403 2.53467 24.0534 5.45605 24.0534H12.5098ZM36.5449 24.0534C39.4663 24.0534 41.834 26.4403 41.834 29.3864V36.4997C41.834 39.4437 39.4663 41.8337 36.5449 41.8337H29.4912C26.5698 41.8337 24.2021 39.4437 24.2021 36.4997V29.3864C24.2022 26.4403 26.5698 24.0534 29.4912 24.0534H36.5449ZM12.5098 0.166672C15.431 0.166718 17.7977 2.55376 17.7979 5.49968V12.6139C17.7977 15.5598 15.431 17.9469 12.5098 17.9469H5.45605C2.53477 17.9469 0.167173 15.5598 0.166992 12.6139V5.49968C0.167126 2.55373 2.53474 0.166672 5.45605 0.166672H12.5098Z" fill="#039B00"/>
</svg>
