<svg width="336" height="211" viewBox="0 0 336 211" fill="none" xmlns="http://www.w3.org/2000/svg">
<path d="M6.09356 40V34.2522C8.00948 34.5217 9.41649 34.1325 10.3146 33.0847C11.2127 32.007 11.6617 30.0312 11.6617 27.1573V8.5669H33.0362V40H26.8843V14.4943H17.8136V26.9777C17.8136 32.3962 16.5713 36.0634 14.0865 37.9793C11.9611 39.6557 9.29674 40.3293 6.09356 40ZM65.5372 7.93824C70.0875 7.93824 73.9493 9.52486 77.1225 12.6981C80.2958 15.8414 81.8824 19.7032 81.8824 24.2834C81.8824 28.8338 80.2958 32.6955 77.1225 35.8688C73.9493 39.042 70.0875 40.6287 65.5372 40.6287C61.4958 40.6287 57.9633 39.3264 54.9398 36.722C51.9761 34.1175 50.1949 30.8096 49.5961 26.7981H45.0608V40H38.864V8.5669H45.0608V20.8707H49.7308C50.4792 17.0987 52.3203 14.0003 55.2541 11.5755C58.1878 9.15066 61.6155 7.93824 65.5372 7.93824ZM65.5372 13.9554C62.6034 13.9554 60.1786 14.9134 58.2627 16.8293C56.3468 18.7452 55.3888 21.2299 55.3888 24.2834C55.3888 27.2771 56.3617 29.7468 58.3076 31.6927C60.2235 33.6086 62.6334 34.5666 65.5372 34.5666C68.441 34.5666 70.8509 33.6086 72.7668 31.6927C74.7127 29.7468 75.6856 27.2771 75.6856 24.2834C75.6856 21.2898 74.7127 18.8201 72.7668 16.8742C70.821 14.9284 68.4111 13.9554 65.5372 13.9554ZM92.4209 20.4666H98.2585C101.342 20.4666 103.842 21.3796 105.758 23.2057C107.703 25.0019 108.676 27.337 108.676 30.2108C108.676 33.0847 107.703 35.4497 105.758 37.3057C103.842 39.1019 101.342 40 98.2585 40H86.2241V8.5669H105.982V14.4943H92.4209V20.4666ZM92.4209 34.2073H98.2585C99.5158 34.2073 100.534 33.8481 101.312 33.1296C102.12 32.4112 102.524 31.4382 102.524 30.2108C102.524 28.9834 102.12 28.0255 101.312 27.337C100.534 26.6185 99.5158 26.2592 98.2585 26.2592H92.4209V34.2073ZM136.875 40H130.678V20.8258L117.206 40H112.491V8.5669H118.688V27.786L132.16 8.5669H136.875V40ZM167.089 8.5669H173.465V40H167.313V19.6134L158.467 34.2073H157.748L148.902 19.6583V40H142.705V8.5669H149.082L158.108 23.4303L167.089 8.5669ZM206.265 40H199.529L197.643 34.342H185.115L183.229 40H176.538L187.539 8.5669H195.218L206.265 40ZM191.401 15.7067L187.09 28.5494H195.712L191.401 15.7067ZM219.277 8.5669H231.85V40H225.653V29.0882H222.106L214.876 40H207.916L215.595 28.4147C213.589 27.6962 211.958 26.4688 210.7 24.7325C209.443 22.9962 208.814 21.0803 208.814 18.9847C208.814 16.1108 209.832 13.6561 211.868 11.6204C213.903 9.58473 216.373 8.5669 219.277 8.5669ZM219.277 23.6548H225.653V14.3596H219.277C218.109 14.3596 217.107 14.8086 216.268 15.7067C215.43 16.6048 215.011 17.6975 215.011 18.9847C215.011 20.272 215.43 21.3796 216.268 22.3077C217.107 23.2057 218.109 23.6548 219.277 23.6548ZM255.112 27.0226V34.0726H268.359V40H248.915V8.5669H268.134V14.4943H255.112V21.185H267.011V27.0226H255.112ZM296.885 8.5669V34.0726H300.253V46.0172H294.056V40H276.678V46.0172H270.481V34.0726H273.535C275.271 31.6777 276.139 28.1303 276.139 23.4303V8.5669H296.885ZM280.181 34.0726H290.688V14.3596H282.336V23.5201C282.336 28.1003 281.618 31.6178 280.181 34.0726ZM331.506 40H324.77L322.884 34.342H310.356L308.47 40H301.779L312.781 8.5669H320.459L331.506 40ZM316.642 15.7067L312.332 28.5494H320.953L316.642 15.7067Z" fill="#039B00"/>
<path d="M43.3935 84.3554C48.8473 87.4972 51.5743 92.2397 51.5743 98.5827C51.5743 103.859 49.7069 108.186 45.9722 111.565C42.2375 114.944 37.6433 116.634 32.1894 116.634H5.77987V54.3889H30.3221C35.5981 54.3889 40.0738 56.0488 43.7492 59.3685C47.4246 62.6882 49.2623 66.8675 49.2623 71.9064C49.2623 77.0638 47.306 81.2135 43.3935 84.3554ZM30.3221 65.8598H18.051V79.5536H30.3221C32.2191 79.5536 33.79 78.9015 35.0349 77.5974C36.3391 76.2932 36.9912 74.663 36.9912 72.7067C36.9912 70.7504 36.3687 69.1202 35.1238 67.816C33.879 66.5118 32.2784 65.8598 30.3221 65.8598ZM18.051 105.163H32.1894C34.2643 105.163 35.9834 104.481 37.3469 103.118C38.7103 101.695 39.3921 99.9166 39.3921 97.7824C39.3921 95.7076 38.7103 93.9885 37.3469 92.625C35.9834 91.2023 34.2643 90.4909 32.1894 90.4909H18.051V105.163ZM134.224 108.542C127.94 114.766 120.293 117.879 111.282 117.879C102.271 117.879 94.6241 114.766 88.3404 108.542C82.1159 102.199 79.0036 94.522 79.0036 85.5113C79.0036 76.4414 82.1159 68.7942 88.3404 62.5697C94.6241 56.2859 102.271 53.144 111.282 53.144C120.293 53.144 127.94 56.2859 134.224 62.5697C140.507 68.7942 143.649 76.4414 143.649 85.5113C143.649 94.5813 140.507 102.258 134.224 108.542ZM96.9657 100.183C100.76 103.977 105.532 105.874 111.282 105.874C117.032 105.874 121.804 103.977 125.598 100.183C129.452 96.3301 131.378 91.4394 131.378 85.5113C131.378 79.5833 129.452 74.6926 125.598 70.8393C121.745 66.9861 116.973 65.0595 111.282 65.0595C105.591 65.0595 100.819 66.9861 96.9657 70.8393C93.1125 74.6926 91.1858 79.5833 91.1858 85.5113C91.1858 91.4394 93.1125 96.3301 96.9657 100.183ZM197.335 54.3889V104.896H204.004V128.549H191.733V116.634H157.32V128.549H145.049V104.896H151.096C154.534 100.154 156.253 93.1289 156.253 83.8218V54.3889H197.335ZM164.256 104.896H185.064V65.8598H168.524V83.9997C168.524 93.0696 167.102 100.035 164.256 104.896ZM247.582 79.109V54.3889H259.764V116.634H247.582V90.8466H224.463V116.634H212.192V54.3889H224.463V79.109H247.582ZM323.702 108.542C317.418 114.766 309.771 117.879 300.76 117.879C291.75 117.879 284.103 114.766 277.819 108.542C271.594 102.199 268.482 94.522 268.482 85.5113C268.482 76.4414 271.594 68.7942 277.819 62.5697C284.103 56.2859 291.75 53.144 300.76 53.144C309.771 53.144 317.418 56.2859 323.702 62.5697C329.986 68.7942 333.128 76.4414 333.128 85.5113C333.128 94.5813 329.986 102.258 323.702 108.542ZM286.444 100.183C290.238 103.977 295.01 105.874 300.76 105.874C306.511 105.874 311.283 103.977 315.077 100.183C318.93 96.3301 320.857 91.4394 320.857 85.5113C320.857 79.5833 318.93 74.6926 315.077 70.8393C311.223 66.9861 306.451 65.0595 300.76 65.0595C295.069 65.0595 290.297 66.9861 286.444 70.8393C282.591 74.6926 280.664 79.5833 280.664 85.5113C280.664 91.4394 282.591 96.3301 286.444 100.183Z" fill="#28292A"/>
<path d="M26.6364 159.885L46.0625 185.883H34.5801L16.5261 162.196V185.883H6.56026V135.331H16.5261V157.646L33.858 135.331H45.3403L26.6364 159.885ZM95.5892 185.883H84.7568L81.7237 176.783H61.5754L58.5423 185.883H47.7821L65.4751 135.331H77.8241L95.5892 185.883ZM71.6857 146.814L64.7529 167.468H78.6184L71.6857 146.814ZM122.64 186.894C115.081 186.894 108.798 184.366 103.791 179.311C98.8326 174.304 96.3531 168.069 96.3531 160.607C96.3531 153.096 98.8326 146.862 103.791 141.903C108.798 136.848 115.081 134.32 122.64 134.32C127.214 134.32 131.426 135.404 135.278 137.57C139.177 139.688 142.21 142.577 144.377 146.236L135.783 151.219C134.531 148.956 132.75 147.199 130.439 145.947C128.128 144.647 125.528 143.997 122.64 143.997C117.729 143.997 113.757 145.538 110.724 148.619C107.739 151.748 106.247 155.744 106.247 160.607C106.247 165.421 107.739 169.393 110.724 172.523C113.757 175.604 117.729 177.144 122.64 177.144C125.528 177.144 128.128 176.519 130.439 175.267C132.798 173.967 134.58 172.21 135.783 169.995L144.377 174.978C142.21 178.637 139.177 181.55 135.278 183.716C131.426 185.834 127.214 186.894 122.64 186.894ZM193.617 185.883H182.785L179.752 176.783H159.603L156.57 185.883H145.81L163.503 135.331H175.852L193.617 185.883ZM169.713 146.814L162.781 167.468H176.646L169.713 146.814ZM227.267 155.407V135.331H237.161V185.883H227.267V164.94H208.491V185.883H198.525V135.331H208.491V155.407H227.267ZM285.765 185.883H275.8V155.046L254.135 185.883H246.552V135.331H256.518V166.24L278.183 135.331H285.765V185.883ZM305.109 165.012V176.35H326.412V185.883H295.143V135.331H326.051V144.864H305.109V155.624H324.246V165.012H305.109Z" fill="#28292A"/>
</svg>
