<svg width="32" height="36" viewBox="0 0 32 36" fill="none" xmlns="http://www.w3.org/2000/svg">
<path d="M14.7076 17.1925L0.134766 33.0089C0.136134 33.0117 0.136134 33.0159 0.137503 33.0187C0.585076 34.7361 2.11805 36 3.93846 36C4.66662 36 5.34961 35.7984 5.93543 35.4457L5.98196 35.4177L22.3848 25.739L14.7076 17.1925Z" fill="#EA4335"/>
<path d="M29.4498 14.4993L29.4361 14.4895L22.3543 10.2918L14.376 17.552L22.383 25.7373L29.4265 21.5817C30.6611 20.8986 31.5001 19.5675 31.5001 18.0335C31.5001 16.5078 30.6734 15.1837 29.4498 14.4993Z" fill="#FBBC04"/>
<path d="M0.134135 2.99C0.0465367 3.32032 0 3.66744 0 4.02576V31.9745C0 32.3329 0.0465367 32.68 0.135504 33.0089L15.2079 17.597L0.134135 2.99Z" fill="#4285F4"/>
<path d="M14.8138 17.9999L22.3554 10.289L5.9718 0.575274C5.3764 0.209958 4.68109 7.17057e-06 3.93787 7.17057e-06C2.11746 7.17057e-06 0.581754 1.26672 0.13418 2.98552C0.13418 2.98692 0.132812 2.98832 0.132812 2.98972L14.8138 17.9999Z" fill="#34A853"/>
</svg>
