<svg width="331" height="240" viewBox="0 0 331 240" fill="none" xmlns="http://www.w3.org/2000/svg">
<path d="M106.074 44.1016H82.743C82.3169 41.0831 81.4468 38.402 80.1329 36.0582C78.819 33.679 77.1322 31.6548 75.0725 29.9858C73.0129 28.3168 70.6336 27.0383 67.9347 26.1506C65.2714 25.2628 62.3772 24.8189 59.2522 24.8189C53.6059 24.8189 48.6876 26.2216 44.4972 29.027C40.3069 31.7969 37.0576 35.8452 34.7494 41.1719C32.4411 46.4631 31.287 52.8906 31.287 60.4545C31.287 68.2315 32.4411 74.7656 34.7494 80.0568C37.0931 85.348 40.3602 89.343 44.5505 92.0419C48.7409 94.7408 53.5882 96.0902 59.0924 96.0902C62.1819 96.0902 65.0406 95.6818 67.6684 94.8651C70.3318 94.0483 72.6933 92.8587 74.7529 91.2962C76.8126 89.6982 78.5171 87.7628 79.8666 85.4901C81.2515 83.2173 82.2103 80.625 82.743 77.7131L106.074 77.8196C105.47 82.8267 103.961 87.6562 101.546 92.3082C99.167 96.9247 95.9532 101.062 91.9049 104.719C87.8921 108.342 83.0981 111.218 77.5228 113.349C71.983 115.444 65.7153 116.491 58.7196 116.491C48.9894 116.491 40.2892 114.29 32.6187 109.886C24.9838 105.483 18.9468 99.1087 14.5079 90.7635C10.1045 82.4183 7.90279 72.3153 7.90279 60.4545C7.90279 48.5582 10.14 38.4375 14.6144 30.0923C19.0889 21.7472 25.1613 15.3906 32.8318 11.0227C40.5022 6.61932 49.1315 4.41761 58.7196 4.41761C65.0406 4.41761 70.8999 5.30539 76.2977 7.08096C81.7309 8.85653 86.5427 11.4489 90.733 14.8579C94.9234 18.2315 98.3325 22.3686 100.96 27.2692C103.624 32.1697 105.328 37.7805 106.074 44.1016ZM122.613 5.90909H145.625V74.517H146.53L193.672 5.90909H213.86V115H190.795V46.3388H189.996L142.589 115H122.613V5.90909ZM254.543 5.90909L276.542 43.0895H277.394L299.5 5.90909H325.548L292.256 60.4545L326.293 115H299.766L277.394 77.7663H276.542L254.17 115H227.749L261.893 60.4545L228.388 5.90909H254.543Z" fill="#28292A" fill-opacity="0.04"/>
<path d="M106.074 164.102H82.743C82.3169 161.083 81.4468 158.402 80.1329 156.058C78.819 153.679 77.1322 151.655 75.0725 149.986C73.0129 148.317 70.6336 147.038 67.9347 146.151C65.2714 145.263 62.3772 144.819 59.2522 144.819C53.6059 144.819 48.6876 146.222 44.4972 149.027C40.3069 151.797 37.0576 155.845 34.7494 161.172C32.4411 166.463 31.287 172.891 31.287 180.455C31.287 188.232 32.4411 194.766 34.7494 200.057C37.0931 205.348 40.3602 209.343 44.5505 212.042C48.7409 214.741 53.5882 216.09 59.0924 216.09C62.1819 216.09 65.0406 215.682 67.6684 214.865C70.3318 214.048 72.6933 212.859 74.7529 211.296C76.8126 209.698 78.5171 207.763 79.8666 205.49C81.2515 203.217 82.2103 200.625 82.743 197.713L106.074 197.82C105.47 202.827 103.961 207.656 101.546 212.308C99.167 216.925 95.9532 221.062 91.9049 224.719C87.8921 228.342 83.0981 231.218 77.5228 233.349C71.983 235.444 65.7153 236.491 58.7196 236.491C48.9894 236.491 40.2892 234.29 32.6187 229.886C24.9838 225.483 18.9468 219.109 14.5079 210.763C10.1045 202.418 7.90279 192.315 7.90279 180.455C7.90279 168.558 10.14 158.438 14.6144 150.092C19.0889 141.747 25.1613 135.391 32.8318 131.023C40.5022 126.619 49.1315 124.418 58.7196 124.418C65.0406 124.418 70.8999 125.305 76.2977 127.081C81.7309 128.857 86.5427 131.449 90.733 134.858C94.9234 138.232 98.3325 142.369 100.96 147.269C103.624 152.17 105.328 157.781 106.074 164.102ZM122.613 125.909H145.625V194.517H146.53L193.672 125.909H213.86V235H190.795V166.339H189.996L142.589 235H122.613V125.909ZM254.543 125.909L276.542 163.089H277.394L299.5 125.909H325.548L292.256 180.455L326.293 235H299.766L277.394 197.766H276.542L254.17 235H227.749L261.893 180.455L228.388 125.909H254.543Z" fill="#28292A" fill-opacity="0.04"/>
</svg>
