<svg width="42" height="40" viewBox="0 0 42 40" fill="none" xmlns="http://www.w3.org/2000/svg">
<path opacity="0.4" d="M23.0333 1.48671L27.6718 10.8081C28.0135 11.4835 28.6658 11.9524 29.418 12.0567L39.8369 13.5741C40.4454 13.6596 40.9976 13.9806 41.3706 14.4704C41.7394 14.954 41.8978 15.5668 41.8082 16.1692C41.7352 16.6694 41.4998 17.1322 41.1393 17.4865L33.5897 24.8048C33.0375 25.3155 32.7875 26.0721 32.9209 26.8121L34.7796 37.1006C34.9775 38.3429 34.1545 39.5144 32.9209 39.7499C32.4124 39.8312 31.8915 39.7457 31.433 39.5123L22.1394 34.6702C21.4496 34.3222 20.6349 34.3222 19.9451 34.6702L10.6515 39.5123C9.50957 40.1189 8.09469 39.7061 7.45913 38.5806C7.22367 38.1324 7.14032 37.6218 7.21742 37.1236L9.07615 26.8329C9.20951 26.0951 8.95737 25.3342 8.40725 24.8236L0.857717 17.5094C-0.0403923 16.6423 -0.0674815 15.2145 0.797288 14.3161C0.816042 14.2974 0.836879 14.2765 0.857717 14.2557C1.21613 13.8909 1.68706 13.6596 2.1955 13.5991L12.6144 12.0796C13.3646 11.9733 14.0168 11.5085 14.3606 10.829L18.8324 1.48671C19.2304 0.686299 20.0556 0.188129 20.9516 0.208973H21.2308C22.0081 0.302771 22.6853 0.784266 23.0333 1.48671" fill="#039B00"/>
<path d="M20.9827 34.4107C20.5792 34.4232 20.186 34.5316 19.8324 34.7255L10.5842 39.5566C9.4526 40.0966 8.09844 39.6775 7.464 38.5954C7.22895 38.1533 7.14366 37.6467 7.22271 37.1504L9.06986 26.8816C9.19466 26.1351 8.94505 25.3762 8.40214 24.8507L0.849218 17.5385C-0.0473139 16.6607 -0.0639549 15.2199 0.813856 14.3213C0.826337 14.3088 0.836738 14.2983 0.849218 14.2879C1.207 13.9335 1.66879 13.6999 2.16593 13.627L12.5936 12.0924C13.3487 11.9965 14.0039 11.5252 14.3367 10.8413L18.8693 1.38151C19.2999 0.618381 20.1257 0.163841 20.9994 0.211797C20.9827 0.831055 20.9827 33.9895 20.9827 34.4107" fill="#039B00"/>
</svg>
