<svg width="42" height="42" viewBox="0 0 42 42" fill="none" xmlns="http://www.w3.org/2000/svg">
<path opacity="0.4" d="M41.8327 20.9998C41.8327 32.5081 32.5056 41.8331 20.9994 41.8331C9.4931 41.8331 0.166016 32.5081 0.166016 20.9998C0.166016 9.4956 9.4931 0.166428 20.9994 0.166428C32.5056 0.166428 41.8327 9.4956 41.8327 20.9998" fill="#039B00"/>
<path d="M28.4447 28.9466C28.1717 28.9466 27.8967 28.8758 27.6447 28.7279L19.4655 23.8487C18.9947 23.5654 18.7051 23.055 18.7051 22.505V11.9904C18.7051 11.1279 19.4051 10.4279 20.2676 10.4279C21.1301 10.4279 21.8301 11.1279 21.8301 11.9904V21.6175L29.2467 26.0404C29.9863 26.4841 30.2301 27.4425 29.7884 28.1841C29.4947 28.6737 28.9759 28.9466 28.4447 28.9466" fill="#039B00"/>
</svg>
